Coordinates
version=1
nRows=10
nColumns=46
inDegrees=yes

Units are S.I. units (second, meters, Newtons, ...)
Angles are in degrees.

endheader
time	pelvis_tilt	pelvis_list	pelvis_rotation	pelvis_tx	pelvis_ty	pelvis_tz	bb_angle	bb_tx	bb_ty	bb_tz	hip_flexion_r	hip_adduction_r	hip_rotation_r	knee_angle_r	knee_angle_r_beta	ankle_angle_r	subtalar_angle_r	mtp_angle_r	crank_angle_r	hip_flexion_l	hip_adduction_l	hip_rotation_l	knee_angle_l	knee_angle_l_beta	ankle_angle_l	subtalar_angle_l	mtp_angle_l	crank_angle_l	lumbar_extension	lumbar_bending	lumbar_rotation	arm_flex_r	arm_add_r	arm_rot_r	elbow_flex_r	pro_sup_r	wrist_flex_r	wrist_dev_r	arm_flex_l	arm_add_l	arm_rot_l	elbow_flex_l	pro_sup_l	wrist_flex_l	wrist_dev_l
      0.00500000	     -7.71782456	     -1.70147170	     -2.22734059	      0.05765340	      1.15924821	     -0.22880051	      0.00000000	      0.50000000	      0.00000000	      0.25000000	     76.59487804	      1.57334085	      4.14145188	     87.44233875	      1.52615672	     -0.98158978	     -9.62509799	      0.00000000	      0.00000000	     40.44294881	     -6.39154793	      1.86334151	     67.52441072	      1.17852329	      6.75479704	     -8.38856853	      0.00000000	      0.00000000	    -57.92288676	      2.08178408	      2.57650083	     89.56318150	     -8.86931610	     49.48879980	     32.38564651	     28.99490605	      0.00000000	      0.00000000	     89.50485964	     -8.50522448	     49.50621089	     21.66751633	     27.70818068	      0.00000000	      0.00000000
      0.01000000	     -7.74368890	     -1.66024354	     -2.26517097	      0.05769350	      1.15923371	     -0.22878481	      0.00000000	      0.50000000	      0.00000000	      0.25000000	     76.61489050	      1.57873301	      4.18149418	     87.42011932	      1.52576891	     -1.00788173	     -9.59820340	      0.00000000	      0.00000000	     40.44910301	     -6.37229498	      1.82714501	     67.51745836	      1.17840195	      6.82419221	     -8.38872489	      0.00000000	      0.00000000	    -57.89545216	      2.03503821	      2.55774083	     89.56192378	     -8.97768381	     49.70182727	     32.47311100	     29.44250477	      0.00000000	      0.00000000	     89.51022111	     -8.62797509	     50.00463149	     21.72599548	     27.85764540	      0.00000000	      0.00000000
      0.01500000	     -7.74770995	     -1.63164254	     -2.28523470	      0.05770100	      1.15921647	     -0.22871484	      0.00000000	      0.50000000	      0.00000000	      0.25000000	     76.61224947	      1.58870038	      4.20941270	     87.40457139	      1.52549755	     -0.96490351	     -9.55625002	      0.00000000	      0.00000000	     40.45083061	     -6.36232535	      1.79053216	     67.53662160	      1.17873641	      6.80054592	     -8.43759399	      0.00000000	      0.00000000	    -57.89953166	      2.01474366	      2.32195153	     89.57192014	     -8.28071454	     48.94385988	     31.56058877	     30.06172992	      0.00000000	      0.00000000	     89.45530576	     -8.47182667	     47.08316392	     21.85039044	     28.20882534	      0.00000000	      0.00000000
      0.02000000	     -7.56771610	     -1.67548584	     -2.35195858	      0.05776217	      1.15954436	     -0.22862984	      0.00000000	      0.50000000	      0.00000000	      0.25000000	     76.38095634	      1.68048740	      4.21506624	     87.38257340	      1.52511361	     -0.94955488	     -9.58871917	      0.00000000	      0.00000000	     40.21483663	     -6.43756428	      1.75632307	     67.51093384	      1.17828808	      6.84739102	     -8.42272495	      0.00000000	      0.00000000	    -58.15104613	      2.03337560	      2.60552255	     89.57784067	     -8.69101408	     48.88955038	     32.01338708	     30.50031472	      0.00000000	      0.00000000	     89.44127704	     -8.07928494	     48.34777445	     21.91665121	     28.83746380	      0.00000000	      0.00000000
      0.02500000	     -7.88384116	     -2.33293051	     -2.46403358	      0.05786278	      1.15820158	     -0.22742936	      0.00000000	      0.50000000	      0.00000000	      0.25000000	     76.65827239	      2.26752015	      3.71491767	     87.25735804	      1.52292819	     -1.11497449	     -9.78633349	      0.00000000	      0.00000000	     40.78703783	     -6.82888055	      2.65223686	     67.76942371	      1.18279958	      6.92304680	     -5.38988558	      0.00000000	      0.00000000	    -57.88590892	      2.46976657	      3.30403699	     89.57834805	     -9.28178781	     49.45270129	     33.13357324	     30.69966397	      0.00000000	      0.00000000	     89.46139533	     -7.83704628	     49.26311879	     21.37219753	     28.84953578	      0.00000000	      0.00000000
      0.03000000	     -8.03155422	     -2.69317176	     -2.70664802	      0.05813445	      1.15716448	     -0.22528498	      0.00000000	      0.50000000	      0.00000000	      0.25000000	     76.86813700	      2.84193253	      3.75505695	     87.00938334	      1.51860022	     -1.53356962	     -9.26712291	      0.00000000	      0.00000000	     40.96249876	     -7.11987956	      3.14780995	     67.96690609	      1.18624629	      6.76508464	     -5.22931451	      0.00000000	      0.00000000	    -57.69409472	      2.37405324	      3.71104871	     89.55686826	     -9.36512446	     49.79646726	     33.33059834	     30.74722500	      0.00000000	      0.00000000	     89.46870101	     -7.57866121	     49.44784249	     20.87896819	     28.77680468	      0.00000000	      0.00000000
      0.03500000	     -7.66870654	     -1.70888441	     -2.34640315	      0.05782327	      1.15930613	     -0.22863339	      0.00000000	      0.50000000	      0.00000000	      0.25000000	     76.47018648	      1.67436495	      4.17552802	     87.32383653	      1.52408846	     -1.00730869	     -9.57161962	      0.00000000	      0.00000000	     40.35493212	     -6.47345504	      1.79618068	     67.63188532	      1.18039908	      7.02019881	     -8.33705879	      0.00000000	      0.00000000	    -57.94783508	      1.94871406	      2.86746906	     89.54533802	     -9.46858580	     49.80098244	     32.67905403	     30.60725004	      0.00000000	      0.00000000	     89.52451171	     -8.22321204	     49.48466368	     21.22645765	     28.81440016	      0.00000000	      0.00000000
      0.04000000	     -7.69202209	     -1.71408945	     -2.31197274	      0.05784508	      1.15929635	     -0.22876766	      0.00000000	      0.50000000	      0.00000000	      0.25000000	     76.48023935	      1.62419942	      4.17431665	     87.30798432	      1.52381179	     -0.89190787	     -9.34749695	      0.00000000	      0.00000000	     40.38931715	     -6.43482928	      1.84638571	     67.66182979	      1.18092171	      7.07612231	     -8.36877211	      0.00000000	      0.00000000	    -57.94622457	      2.03132478	      2.52488732	     89.56759486	     -8.53865097	     49.03005421	     31.66037849	     30.52928213	      0.00000000	      0.00000000	     89.45698936	     -8.28016713	     46.62049550	     21.72609253	     28.30227387	      0.00000000	      0.00000000
      0.04500000	     -7.69907644	     -1.68710174	     -2.35360904	      0.05788046	      1.15928740	     -0.22869710	      0.00000000	      0.50000000	      0.00000000	      0.25000000	     76.48578993	      1.65438234	      4.19957880	     87.27753874	      1.52328041	     -0.99944641	     -9.45549465	      0.00000000	      0.00000000	     40.38543325	     -6.44000655	      1.79442293	     67.68413247	      1.18131096	      7.11424923	     -8.35717409	      0.00000000	      0.00000000	    -57.91901033	      1.97302337	      2.67849186	     89.55351699	     -9.15546781	     49.74292519	     32.43669657	     30.50914494	      0.00000000	      0.00000000	     89.50788818	     -8.62603642	     49.80821603	     21.65445932	     28.53756016	      0.00000000	      0.00000000
      0.05000000	     -7.59251706	     -1.57248206	     -2.28332208	      0.05786386	      1.15949908	     -0.22887693	      0.00000000	      0.50000000	      0.00000000	      0.25000000	     76.38377861	      1.51046022	      4.29141905	     87.29664121	      1.52361382	     -0.96987629	     -9.25729630	      0.00000000	      0.00000000	     40.25252556	     -6.26722728	      1.78816738	     67.64455047	      1.18062013	      7.15753994	     -8.31285823	      0.00000000	      0.00000000	    -58.06219996	      1.94371707	      2.28267597	     89.56532907	     -8.18869772	     48.21145538	     31.17159309	     31.54801558	      0.00000000	      0.00000000	     89.44683484	     -8.18840134	     45.31227733	     21.62581515	     29.31184940	      0.00000000	      0.00000000
